<svg width="34" height="34" viewBox="0 0 34 34" fill="none" xmlns="http://www.w3.org/2000/svg">
<rect width="33.4113" height="33.4113" rx="5.56856" fill="#F5F7FA"/>
<g clip-path="url(#clip0_211_2521)">
<path d="M30.6246 9.33532C30.6246 9.35886 30.6246 9.38828 30.6185 9.40593C30.5878 9.63542 30.5878 9.8649 30.6062 10.1003C30.6185 10.1591 30.6308 10.218 30.6798 10.265C30.7595 10.3533 30.8821 10.3356 30.9312 10.2297C30.9557 10.1768 30.9557 10.1238 30.9434 10.0708C30.8821 9.84725 30.8699 9.61188 30.8637 9.38239C30.8637 9.37063 30.8637 9.35297 30.8637 9.33532C30.9312 9.32944 30.9925 9.32355 31.0476 9.32355C31.0906 9.31767 31.1274 9.31178 31.158 9.29413C31.25 9.24706 31.25 9.14703 31.1519 9.09996C31.1151 9.0823 31.0661 9.07642 31.0231 9.07642C30.8699 9.0823 30.7166 9.0823 30.5633 9.0823C30.5082 9.0823 30.453 9.08819 30.3978 9.09407C30.3671 9.09996 30.3303 9.09996 30.3058 9.11761C30.2629 9.13526 30.2384 9.16468 30.2384 9.20587C30.2445 9.24706 30.2629 9.2706 30.3058 9.28825C30.3303 9.3059 30.361 9.31178 30.3916 9.31178C30.4652 9.31767 30.5449 9.32944 30.6246 9.33532ZM32.3106 9.606C32.3106 9.61188 32.3167 9.61776 32.3167 9.61776C32.3412 9.77664 32.3658 9.92963 32.3842 10.0826C32.3903 10.1356 32.3964 10.1826 32.4332 10.2238C32.5129 10.3239 32.6355 10.3121 32.6907 10.2062C32.7152 10.1532 32.7214 10.1003 32.7091 10.0414C32.6723 9.8649 32.6539 9.68837 32.6171 9.51773C32.5926 9.41182 32.562 9.31178 32.5313 9.21764C32.5129 9.1588 32.47 9.1176 32.3964 9.11172C32.3229 9.09996 32.2677 9.13526 32.237 9.18822C32.2002 9.23529 32.1696 9.28236 32.145 9.33532C32.1021 9.42947 32.0654 9.52362 32.0163 9.61188C32.0102 9.63542 32.004 9.65307 31.9918 9.67072C31.9857 9.65895 31.9796 9.65307 31.9796 9.65307C31.8998 9.50597 31.8263 9.35886 31.7466 9.21764C31.7343 9.20587 31.7282 9.1941 31.722 9.18233C31.6853 9.12938 31.6424 9.09996 31.5749 9.09996C31.5136 9.10584 31.4645 9.14114 31.4339 9.1941C31.4216 9.21764 31.4216 9.23529 31.4155 9.25883C31.391 9.44712 31.3603 9.63542 31.3358 9.82371C31.3235 9.92963 31.3174 10.0355 31.3174 10.1415C31.3113 10.165 31.3174 10.1944 31.3296 10.218C31.3419 10.265 31.3787 10.2944 31.4277 10.3003C31.4891 10.3062 31.532 10.2886 31.5504 10.2415C31.5687 10.2062 31.5749 10.1768 31.581 10.1473C31.6056 10.0414 31.6239 9.9414 31.6424 9.84136C31.6546 9.78252 31.6607 9.73545 31.6791 9.67072C31.6914 9.69426 31.7036 9.71191 31.7159 9.72956C31.7711 9.80018 31.8263 9.87079 31.8937 9.92963C31.9611 9.9767 32.0163 9.97082 32.0715 9.91786C32.0838 9.90609 32.0899 9.90021 32.1021 9.88844C32.1573 9.80606 32.2248 9.72368 32.2799 9.6413C32.2922 9.62953 32.2983 9.61776 32.3106 9.606Z" fill="#3A3B7B"/>
<path d="M18.1844 9.45093C18.1418 9.56275 18.1337 9.64332 18.1534 9.71028C18.1751 9.80134 18.2315 9.83115 18.308 9.80799C19.0282 9.63708 20.6072 10.1222 21.1919 10.2574C21.3297 10.2858 21.4419 10.115 21.3478 9.9618C21.2105 9.81348 19.6321 9.17846 19.0299 9.14384C18.7938 9.13103 18.3718 9.07294 18.1844 9.45093Z" fill="#3A3B7B"/>
<path d="M24.3557 7.3953C24.4324 7.43781 24.4754 7.47837 24.4965 7.52368C24.5281 7.58312 24.5114 7.62424 24.4584 7.64523C23.9824 7.8682 23.349 8.82814 23.0933 9.15921C23.0313 9.23537 22.8884 9.19112 22.8668 9.06587C22.8712 8.92426 23.4327 7.88251 23.7461 7.59877C23.8692 7.48799 24.0727 7.27063 24.3557 7.3953Z" fill="#3A3B7B"/>
<path d="M20.565 6.92279C20.6572 6.85609 20.753 6.83272 20.8019 6.87606C21.5201 7.46556 21.901 8.39909 22.1368 9.25371C22.1457 9.27362 22.1463 9.30219 22.1392 9.332C22.1362 9.35747 22.1168 9.38439 22.086 9.40521C22.0531 9.4282 22.0248 9.4352 22.0115 9.41539C21.6967 9.00448 19.8989 7.4057 20.565 6.92279Z" fill="#3A3B7B"/>
<path d="M5.35642 17.1432C5.52855 17.0202 5.71568 16.9178 5.91371 16.8384C6.12089 16.7815 6.34171 16.7909 6.54282 16.8653C6.74388 16.9396 6.91432 17.0747 7.02827 17.2502C7.1302 17.4253 7.17006 17.6274 7.14193 17.8262C7.11379 18.0248 7.01915 18.2094 6.87222 18.352C6.75832 18.4677 6.629 18.5684 6.48772 18.6516C5.858 19.042 5.22266 19.4111 4.58737 19.8015C4.45737 19.8993 4.31947 19.9869 4.17497 20.0636C3.95519 20.1688 3.70401 20.197 3.46486 20.1433C3.22573 20.0896 3.01366 19.9573 2.86535 19.7695C2.75448 19.6364 2.66091 19.491 2.58671 19.3362C1.98484 18.1221 1.36068 16.9132 0.781105 15.6777C0.513606 15.1428 0.296266 14.5277 0.0844979 13.934C-0.00712287 13.7615 -0.0250143 13.5615 0.0346332 13.3766C0.0942807 13.1916 0.226761 13.0362 0.403894 12.9436C0.581028 12.8509 0.788835 12.8282 0.983126 12.8804C1.17742 12.9325 1.34286 13.0553 1.44427 13.2226C1.75598 13.6202 2.0319 14.0425 2.26906 14.485C2.87092 15.5547 3.44493 16.6244 4.02451 17.6621C4.05825 17.7194 4.09547 17.7747 4.13596 17.8279C4.57219 17.6518 4.98249 17.4217 5.35642 17.1432Z" fill="#3A3B7B"/>
<path d="M11.5794 16.77C10.2029 18.3158 7.89573 17.9253 6.73658 15.9356C5.91178 14.5236 5.7669 12.1915 7.56138 10.7206C7.94457 10.4127 8.40277 10.2029 8.89326 10.1109C9.49466 10.0281 10.1079 10.13 10.6454 10.4018C11.1829 10.6737 11.617 11.1016 11.8859 11.6246C12.8667 13.3362 12.7274 15.5184 11.5794 16.77ZM11.0221 13.165C10.8759 12.7444 10.5825 12.3853 10.1917 12.1487C9.97062 11.9975 9.70194 11.9239 9.43096 11.9405C9.15994 11.957 8.90317 12.0627 8.70379 12.2396C7.9069 12.9189 7.73968 14.5289 8.31925 15.4863C8.39314 15.6425 8.50161 15.7812 8.6372 15.8929C8.77278 16.0045 8.93215 16.0864 9.10414 16.1327C9.27612 16.1791 9.45657 16.1889 9.63291 16.1613C9.80924 16.1337 9.97712 16.0694 10.1249 15.973C10.5569 15.6516 10.8738 15.209 11.0316 14.7067C11.1894 14.2044 11.1802 13.6674 11.0054 13.1704L11.0221 13.165Z" fill="#3A3B7B"/>
<path d="M17.1968 13.839C17.0559 13.8681 16.9103 13.8698 16.7686 13.8441C16.627 13.8183 16.4921 13.7657 16.372 13.6892C16.2669 13.6315 16.1764 13.5522 16.1071 13.4569C16.0378 13.3616 15.9913 13.2528 15.9711 13.1382C15.9508 13.0236 15.9573 12.9062 15.99 12.7943C16.0227 12.6824 16.0809 12.5789 16.1603 12.4911C16.2986 12.3147 16.495 12.1885 16.7175 12.1328C17.2986 11.9709 17.8968 11.8722 18.5009 11.8386C18.6336 11.8238 18.768 11.8345 18.8963 11.8703C19.0247 11.9061 19.1442 11.966 19.2481 12.0468C19.3519 12.1275 19.4379 12.2273 19.501 12.3403C19.564 12.4534 19.6029 12.5774 19.6154 12.7051C19.7896 13.3322 19.8086 13.9898 19.6711 14.6253C19.1696 16.6791 17.442 17.3852 15.5026 16.7273C14.9583 16.5514 14.4809 16.2236 14.1317 15.7859C13.666 15.2588 13.3357 14.6341 13.1676 13.962C13.0314 13.3635 13.0463 12.7426 13.2112 12.1508C13.376 11.559 13.6859 11.0136 14.115 10.5602C14.5223 10.0674 15.0508 9.6796 15.6531 9.43166C16.0337 9.23033 16.479 9.17308 16.9015 9.2712C16.9973 9.29665 17.0842 9.34625 17.1534 9.41484C17.2225 9.48343 17.2712 9.56852 17.2945 9.66129C17.3179 9.75405 17.3149 9.85112 17.2859 9.94241C17.257 10.0337 17.2031 10.1159 17.1299 10.1805C16.9908 10.3014 16.8396 10.4089 16.6785 10.5014C16.1831 10.8042 15.7519 11.1944 15.4079 11.6514C15.1824 11.947 15.0271 12.2866 14.953 12.646C14.8788 13.0055 14.8876 13.3762 14.9788 13.732C15.1052 14.2172 15.3857 14.6527 15.7813 14.9782C17.0073 16.048 18.6011 15.0157 18.3225 13.5555C17.9157 13.6518 17.559 13.7534 17.1968 13.839Z" fill="#3A3B7B"/>
<path d="M24.6868 16.8556C22.8757 17.9254 20.8137 16.8556 20.3623 14.6092C20.0335 13.0046 20.6577 10.7581 22.8422 9.90232C23.307 9.72415 23.8112 9.6616 24.3079 9.72046C24.9047 9.82531 25.4521 10.1073 25.873 10.5266C26.2939 10.946 26.5672 11.4815 26.654 12.0578C27.0218 13.9673 26.1859 16.0052 24.6868 16.8556ZM25.3166 13.2559C25.316 12.8116 25.1523 12.3817 24.854 12.0418C24.6946 11.8316 24.4642 11.681 24.202 11.6156C23.9397 11.5503 23.6621 11.5742 23.4162 11.6834C22.4354 12.0899 21.7444 13.5662 21.9951 14.652C22.0143 14.8224 22.072 14.9867 22.1642 15.1335C22.2564 15.2802 22.3809 15.4059 22.529 15.5017C22.6771 15.5974 22.8452 15.661 23.0215 15.6879C23.1979 15.7148 23.3783 15.7045 23.55 15.6575C24.0684 15.4837 24.5173 15.1588 24.834 14.7283C25.1507 14.2977 25.3194 13.783 25.3166 13.2559Z" fill="#3A3B7B"/>
<path d="M28.4856 17.3049C28.4583 17.5006 28.3511 17.678 28.1875 17.7978C28.0239 17.9177 27.8175 17.9703 27.6135 17.9441C27.4095 17.9178 27.2248 17.8149 27.0999 17.6579C26.975 17.5009 26.9202 17.3027 26.9476 17.107C26.9749 16.9112 27.0822 16.7339 27.2457 16.614C27.4093 16.4941 27.6157 16.4416 27.8197 16.4678C28.0237 16.4941 28.2084 16.597 28.3333 16.7539C28.4582 16.9109 28.513 17.1091 28.4856 17.3049ZM28.0008 10.0895C28.1068 9.93411 28.2623 9.8158 28.4441 9.75218C28.6258 9.68856 28.8242 9.68305 29.0095 9.73646C29.1979 9.7817 29.3643 9.88768 29.481 10.0367C29.5977 10.1856 29.6575 10.3686 29.6504 10.5548C29.6258 10.8536 29.5793 11.1503 29.5111 11.4427C29.3272 12.4322 29.1488 13.4217 28.9538 14.4005C28.8646 14.791 28.7476 15.1654 28.6194 15.5612C28.5748 15.6849 28.5003 15.7967 28.4021 15.8875C28.341 15.9557 28.263 16.0081 28.1752 16.0397C28.0875 16.0713 27.9928 16.0812 27.9 16.0684C27.8073 16.0556 27.7193 16.0206 27.6444 15.9665C27.5695 15.9124 27.51 15.8411 27.4714 15.7591C27.4052 15.612 27.3692 15.454 27.3655 15.2938C27.3655 14.6305 27.3655 13.9619 27.4101 13.2933C27.4859 12.3392 27.6349 11.3917 27.8559 10.4585C27.882 10.3335 27.931 10.214 28.0008 10.1055V10.0895Z" fill="#3A3B7B"/>
<path fill-rule="evenodd" clip-rule="evenodd" d="M3.00191 21.603C2.93611 21.744 2.91807 21.9012 2.95022 22.0524C2.97161 22.2518 3.0186 22.4479 3.0901 22.6363C3.17938 22.867 3.27928 23.0951 3.40245 23.3762C3.43078 23.4409 3.46038 23.5084 3.49136 23.5795C3.65747 23.9604 3.86589 24.4471 4.1439 25.1516C4.22259 25.3517 4.29247 25.5535 4.36283 25.7566C4.39126 25.8387 4.41979 25.921 4.44899 26.0036C4.55366 26.297 4.73376 26.5606 4.97249 26.7695C5.07386 26.8844 5.20832 26.968 5.35909 27.0099C5.5128 27.0526 5.67629 27.0498 5.82836 27.0021C5.98044 26.9544 6.11402 26.8638 6.21174 26.7422C6.30755 26.623 6.36452 26.4793 6.3756 26.3292C6.43776 26.0367 6.41654 25.7335 6.31409 25.4516C6.1515 24.9835 5.96628 24.5148 5.7527 24.0563L5.75172 24.0542C5.40036 23.3369 5.0432 22.6245 4.66914 21.9119L4.66634 21.9069C4.55684 21.7212 4.41453 21.5552 4.24582 21.4164C4.13628 21.2925 3.9852 21.2089 3.81835 21.1801C3.64795 21.1507 3.4722 21.1803 3.32249 21.2638C3.18086 21.3414 3.06859 21.4602 3.00191 21.603Z" fill="#3A3B7B"/>
<path fill-rule="evenodd" clip-rule="evenodd" d="M8.36846 19.8367C7.81754 19.6997 7.24217 19.6798 6.68246 19.7782C6.24893 19.8192 5.82256 19.9152 5.52649 20.1053C5.3759 20.202 5.25415 20.3263 5.18643 20.4842C5.11834 20.643 5.10965 20.8246 5.16545 21.0269C5.26733 21.3975 5.39964 21.7578 5.53149 22.117L5.55284 22.1751L5.55336 22.1764C5.95034 23.2199 6.3511 24.2598 6.7555 25.2961C6.80266 25.4594 6.86935 25.6169 6.95423 25.7655L6.95582 25.7683C7.06794 25.9529 7.21174 26.118 7.38116 26.2567C7.46589 26.333 7.57068 26.3857 7.68429 26.4093C7.79903 26.4331 7.91835 26.4262 8.02925 26.3893C8.1402 26.3525 8.23844 26.2871 8.31331 26.2003C8.38697 26.1149 8.4352 26.012 8.45291 25.9026C8.52601 25.6052 8.50259 25.2935 8.38575 25.0092C8.3493 24.9136 8.3207 24.8158 8.29055 24.7129C8.2805 24.6786 8.27032 24.6437 8.25957 24.6081C9.18527 24.2608 10.1702 23.7938 10.5166 22.7075C10.6522 22.332 10.6635 21.9255 10.5489 21.5436C10.4342 21.1613 10.1989 20.8225 9.87542 20.5737C9.43512 20.2255 8.92079 19.9739 8.36846 19.8367ZM6.84136 21.1692C6.85959 21.1641 6.87795 21.1595 6.89637 21.1551C7.49903 21.0642 8.11562 21.1853 8.63261 21.4962C8.86045 21.6483 8.95378 21.8173 8.96981 21.9798C8.98636 22.1472 8.92294 22.3286 8.79554 22.503C8.5548 22.8324 8.11548 23.0961 7.71864 23.1452C7.42935 22.5058 7.13556 21.8405 6.84136 21.1692Z" fill="#3A3B7B"/>
<path d="M12.0414 18.6663C12.6975 18.3754 13.5102 18.3252 14.1461 18.5297C14.3063 18.5745 14.4452 18.6713 14.5392 18.8037C14.6326 18.9352 14.6757 19.0937 14.6613 19.2522C14.6603 19.355 14.634 19.4562 14.5845 19.5475C14.5342 19.6405 14.4612 19.7204 14.3718 19.7806C14.2825 19.8407 14.1793 19.8794 14.0711 19.8932C13.9629 19.9071 13.8528 19.8957 13.7502 19.86L13.7424 19.8573L13.735 19.8536C13.6825 19.8272 13.6267 19.8074 13.569 19.7944L13.5653 19.7936C13.118 19.6796 12.696 19.8686 12.5418 20.1007C12.4683 20.2114 12.4592 20.3232 12.5204 20.4249C12.586 20.5337 12.7468 20.6559 13.0723 20.743C13.1618 20.7666 13.2535 20.7893 13.3465 20.8124C13.6039 20.8764 13.8713 20.9428 14.1299 21.0349L14.1309 21.0353C15.3239 21.4709 15.7681 22.3732 15.616 23.2218C15.4656 24.0611 14.7353 24.8248 13.6372 25.005C13.2376 25.09 12.8217 25.0734 12.4308 24.957C12.0388 24.8401 11.6855 24.6269 11.406 24.3384L11.3987 24.3309C11.3105 24.2222 11.2511 24.0946 11.2248 23.9591C11.2006 23.8368 11.2134 23.7105 11.2615 23.5949C11.3094 23.48 11.3903 23.3806 11.4948 23.3082C11.6051 23.226 11.7381 23.1768 11.8774 23.1665C12.0161 23.1563 12.155 23.1852 12.2768 23.2497C12.3985 23.3061 12.5117 23.3781 12.6133 23.4637L12.6152 23.4653C12.795 23.6231 13.0124 23.6642 13.221 23.6261C13.4325 23.5875 13.6315 23.4673 13.7595 23.3079C13.8866 23.1495 13.9376 22.9613 13.8771 22.7786C13.8161 22.5946 13.6329 22.3884 13.2302 22.2161C13.125 22.1732 13.0158 22.1386 12.9023 22.1049C12.8717 22.0958 12.8406 22.0868 12.8091 22.0776C12.7251 22.0531 12.6388 22.028 12.5541 22.0002C12.4958 21.9811 12.4379 21.963 12.3806 21.9451C12.224 21.8962 12.0713 21.8484 11.9244 21.7844C11.6046 21.6799 11.3283 21.4793 11.1366 21.2121C10.9441 20.9439 10.8473 20.6232 10.8605 20.2978C10.8615 19.5049 11.3818 18.9587 12.0414 18.6663Z" fill="#3A3B7B"/>
<path d="M20.3592 18.5817C20.2319 18.5221 20.0913 18.4938 19.9498 18.4993C19.8084 18.5049 19.6706 18.5442 19.5489 18.6137C19.428 18.6827 19.3268 18.7793 19.2543 18.895C19.1878 18.9924 19.1417 19.1013 19.1188 19.2157C19.0958 19.3299 19.0964 19.4474 19.1204 19.5614C19.1441 19.7079 19.1703 19.8504 19.1963 19.9909C19.2392 20.2235 19.281 20.4508 19.3086 20.6826L19.3096 20.6885C19.3724 21.052 19.4052 21.4196 19.4082 21.788L19.4085 21.7932C19.4299 22.191 19.2887 22.5811 19.015 22.8807L19.0107 22.886C18.9216 22.9955 18.8026 23.0791 18.6668 23.1274C18.5311 23.1758 18.3841 23.1869 18.2422 23.1595C18.1002 23.1322 17.969 23.0675 17.8632 22.9727C17.7574 22.8778 17.6811 22.7562 17.643 22.6222C17.5617 22.3398 17.5146 22.0492 17.5026 21.7564L17.6415 19.634C17.6436 19.6063 17.6459 19.5779 17.6483 19.5492C17.6536 19.4847 17.659 19.419 17.6613 19.3578C17.6645 19.2677 17.6617 19.175 17.6399 19.0873C17.6175 18.9977 17.5749 18.9124 17.4994 18.8398C17.4246 18.7679 17.3236 18.7148 17.1966 18.6787C16.9669 18.6149 16.7727 18.6169 16.6108 18.6829C16.4489 18.7488 16.3379 18.8712 16.2594 19.0126C16.1815 19.1528 16.1315 19.3188 16.0936 19.485C16.0655 19.6084 16.0429 19.7379 16.0215 19.8612C16.0141 19.9036 16.0068 19.9453 15.9995 19.9859L15.9993 19.9871C15.8845 20.6631 15.8503 21.3495 15.8974 22.033C15.9062 22.4024 15.9865 22.7669 16.1342 23.1081C16.3008 23.5484 16.6026 23.9298 16.9997 24.2021C17.3976 24.4749 17.8725 24.6252 18.3615 24.6332C18.8504 24.6411 19.3304 24.5063 19.7377 24.2466C20.1444 23.9872 20.4596 23.6155 20.6416 23.1807C20.8962 22.6267 21.0157 22.0242 20.991 21.4192C20.9761 20.9775 20.951 20.5324 20.9261 20.0895C20.9139 19.8723 20.9017 19.6555 20.8907 19.4401C20.8852 19.2241 20.811 19.0148 20.678 18.8404C20.5957 18.7302 20.4861 18.6413 20.3592 18.5817Z" fill="#3A3B7B"/>
<path d="M24.8618 21.9097C24.8489 21.9254 24.8353 21.9417 24.8211 21.9587C24.7176 21.3857 24.6217 20.813 24.5257 20.2394C24.4912 20.0336 24.4566 19.8269 24.4218 19.6208L24.4178 19.5979L24.4051 19.578C24.3811 19.5406 24.3788 19.5039 24.3788 19.4258V19.4167L24.3773 19.4078C24.3513 19.2463 24.2752 19.0961 24.159 18.9767C24.0431 18.8577 23.8926 18.7748 23.727 18.7388C23.5617 18.6997 23.388 18.7083 23.2277 18.7637C23.0679 18.8189 22.9285 18.918 22.8271 19.0488C22.7428 19.1491 22.6737 19.2604 22.6219 19.3793C22.5044 19.6355 22.3858 19.8923 22.2669 20.1498L22.2648 20.1543C21.968 20.7972 21.6692 21.4444 21.3791 22.0967L21.3782 22.0988C21.2001 22.5217 21.053 22.9674 20.9065 23.4116C20.8772 23.5003 20.848 23.5889 20.8185 23.6774C20.7656 23.8176 20.7425 23.9665 20.7504 24.1153C20.7408 24.2486 20.774 24.3816 20.8457 24.4962C20.9188 24.6132 21.0283 24.7052 21.1587 24.7594C21.297 24.8176 21.4515 24.8299 21.598 24.7945C21.7441 24.7591 21.8738 24.6782 21.9668 24.5644C22.0855 24.4243 22.1876 24.2714 22.2709 24.1095C22.5167 23.6269 22.7516 23.1385 22.9854 22.6522C23.0759 22.4641 23.1638 22.2957 23.2638 22.1122C23.2707 22.1348 23.2777 22.1569 23.2849 22.179C23.3897 22.6219 23.5667 23.0462 23.8092 23.4363C23.8551 23.5189 23.919 23.5911 23.9966 23.6479C24.0751 23.7055 24.1657 23.7458 24.2622 23.7664C24.3586 23.7869 24.4585 23.787 24.555 23.7666C24.6513 23.7464 24.7422 23.7059 24.8207 23.6487L24.9762 23.537L26.1831 22.5613L26.1117 22.9978C26.0138 23.5978 25.9166 24.1929 25.8133 24.788C25.7457 25.0518 25.7458 25.3274 25.8136 25.5911C25.8429 25.7395 25.9177 25.8761 26.0284 25.9836C26.14 26.0919 26.2829 26.1655 26.4386 26.1948C26.5943 26.2241 26.7557 26.2079 26.9016 26.1481C27.0455 26.0893 27.1678 25.9908 27.2534 25.8653C27.4524 25.6284 27.5762 25.3415 27.6102 25.0389C27.6615 24.6115 27.7193 24.1782 27.7772 23.7452C27.8439 23.246 27.9106 22.7469 27.9669 22.2574L27.9671 22.2559C28.0213 21.7201 28.0475 21.1821 28.0457 20.6438C28.0576 20.4737 28.0135 20.3042 27.9194 20.1594C27.8251 20.014 27.6853 19.9011 27.5202 19.8364C27.3484 19.7614 27.1561 19.7414 26.9715 19.7793C26.7881 19.8169 26.6222 19.9097 26.4977 20.0441C26.2751 20.2416 26.0663 20.4531 25.8725 20.677L25.8712 20.6785C25.6598 20.9315 25.4497 21.1893 25.241 21.4456C25.1142 21.6013 24.9876 21.7567 24.8618 21.9097Z" fill="#3A3B7B"/>
</g>
<defs>
<clipPath id="clip0_211_2521">
<rect width="32.7153" height="20.186" fill="white" transform="translate(3.05176e-05 6.85406)"/>
</clipPath>
</defs>
</svg>
