<svg width="34" height="34" viewBox="0 0 34 34" fill="none" xmlns="http://www.w3.org/2000/svg">
<rect width="33.4113" height="33.4113" rx="5.56856" fill="#F5F7FA"/>
<g clip-path="url(#clip0_211_2514)">
<path fill-rule="evenodd" clip-rule="evenodd" d="M7.02898 9.71812L0.078186 16.599C1.46847 17.9754 3.05666 19.1353 4.78824 20.0428C5.26686 21.2996 6.01707 22.4782 7.03888 23.4898C10.8832 27.2954 17.116 27.2954 20.9603 23.4898C21.9821 22.4782 22.7323 21.2996 23.2109 20.0427C24.9425 19.1353 26.5307 17.9754 27.921 16.599L20.9758 9.72372C20.9706 9.71858 20.9655 9.71343 20.9603 9.7083C17.116 5.90265 10.8832 5.90265 7.03888 9.7083C7.03559 9.71157 7.03228 9.71485 7.02898 9.71812ZM20.2952 21.2842C18.2696 21.9609 16.1433 22.3075 13.9996 22.3075C11.8559 22.3075 9.72961 21.9609 7.70404 21.2842C7.92352 21.5725 8.16582 21.8491 8.43102 22.1116C11.5065 25.1562 16.4927 25.1562 19.5681 22.1116C19.8333 21.8491 20.0757 21.5725 20.2952 21.2842ZM8.57378 10.9486C9.09604 11.2902 9.65137 11.5825 10.2324 11.8208C11.4268 12.3105 12.7068 12.5626 13.9996 12.5626C15.2923 12.5626 16.5724 12.3105 17.7667 11.8208C18.3478 11.5825 18.9031 11.2902 19.4254 10.9486C16.3883 8.08787 11.6108 8.08787 8.57378 10.9486Z" fill="#3B4158"/>
</g>
<defs>
<clipPath id="clip0_211_2514">
<rect width="27.8428" height="19.4899" fill="white" transform="translate(0.078186 6.85406)"/>
</clipPath>
</defs>
</svg>
