<svg width="34" height="34" viewBox="0 0 34 34" fill="none" xmlns="http://www.w3.org/2000/svg">
<rect width="33.4113" height="33.4113" rx="5.56856" fill="#F5F7FA"/>
<g clip-path="url(#clip0_211_2537)">
<path d="M26.7552 8.13742C26.7552 8.46178 27.0214 8.72473 27.3498 8.72473H27.9443C28.2727 8.72473 28.5389 8.46178 28.5389 8.13742C28.5389 7.81306 28.2727 7.55011 27.9443 7.55011H27.3498C27.0214 7.55011 26.7552 7.81306 26.7552 8.13742Z" fill="#212326"/>
<path d="M9.51298 26.344H12.4013L11.5604 25.5134C11.3374 25.2931 11.035 25.1694 10.7196 25.1694H9.51298C4.91585 25.1694 1.18915 21.4881 1.18915 16.947C1.18915 12.406 4.91585 8.72473 9.51298 8.72473H19.0259C23.6231 8.72473 27.3498 12.406 27.3498 16.947C27.3498 21.4881 23.6231 25.1694 19.0259 25.1694H15.4673C14.9942 25.1694 14.5406 24.9837 14.2061 24.6533L13.221 23.6802C12.6635 23.1295 11.9073 22.8201 11.1189 22.8201H9.51298C6.2293 22.8201 3.56739 20.1907 3.56739 16.947C3.56739 13.7034 6.2293 11.074 9.51298 11.074H19.0259C22.3096 11.074 24.9715 13.7034 24.9715 16.947C24.9715 20.1907 22.3096 22.8201 19.0259 22.8201H16.741C16.2679 22.8201 15.8142 22.6345 15.4797 22.3041L14.4946 21.331C13.9371 20.7803 13.1809 20.4709 12.3925 20.4709H9.51298C7.5428 20.4709 5.94562 18.8932 5.94562 16.947C5.94562 15.0009 7.5428 13.4232 9.51298 13.4232H19.0259C20.9961 13.4232 22.5933 15.0009 22.5933 16.947C22.5933 18.8695 21.0348 20.4324 19.0978 20.4702L19.0975 20.4709H18.2274C17.7543 20.4709 17.3006 20.2853 16.9661 19.9549L15.981 18.9818C15.5235 18.5299 14.9324 18.2405 14.2993 18.1512L14.2695 18.1217H9.51298C8.85625 18.1217 8.32386 17.5958 8.32386 16.947C8.32386 16.2983 8.85625 15.7724 9.51298 15.7724H19.0259C19.6827 15.7724 20.215 16.2983 20.215 16.947C20.215 17.5958 19.6827 18.1217 19.0259 18.1217H16.6477L17.4885 18.9523C17.7115 19.1725 18.014 19.2963 18.3293 19.2963H19.0259C20.3394 19.2963 21.4042 18.2445 21.4042 16.947C21.4042 15.6496 20.3394 14.5978 19.0259 14.5978H9.51298C8.19953 14.5978 7.13474 15.6496 7.13474 16.947C7.13474 18.2445 8.19953 19.2963 9.51298 19.2963H13.8789C14.352 19.2963 14.8057 19.4819 15.1402 19.8123L16.1253 20.7854C16.6828 21.3361 17.4389 21.6455 18.2274 21.6455H19.3232V21.6365C21.8117 21.4849 23.7824 19.4433 23.7824 16.947C23.7824 14.3522 21.6528 12.2486 19.0259 12.2486H9.51298C6.88607 12.2486 4.75651 14.3522 4.75651 16.947C4.75651 19.542 6.88607 21.6455 9.51298 21.6455H12.3925C12.8656 21.6455 13.3193 21.8312 13.6538 22.1615L14.6389 23.1346C15.1964 23.6854 15.9525 23.9948 16.741 23.9948H19.0259C22.9663 23.9948 26.1606 20.8394 26.1606 16.947C26.1606 13.0547 22.9663 9.89934 19.0259 9.89934H9.51298C5.57257 9.89934 2.37827 13.0547 2.37827 16.947C2.37827 20.8394 5.57257 23.9948 9.51298 23.9948H11.1189C11.5919 23.9948 12.0456 24.1804 12.3801 24.5108L13.3652 25.4839C13.9228 26.0346 14.6789 26.344 15.4673 26.344H19.0259C24.2798 26.344 28.5389 22.1368 28.5389 16.947C28.5389 11.7573 24.2798 7.55011 19.0259 7.55011L9.51298 7.55011C4.25912 7.55011 3.00583e-05 11.7573 3.05176e-05 16.947C3.09769e-05 22.1368 4.25913 26.344 9.51298 26.344Z" fill="#212326"/>
</g>
<defs>
<clipPath id="clip0_211_2537">
<rect width="28.5388" height="18.7939" fill="white" transform="translate(3.05176e-05 7.55011)"/>
</clipPath>
</defs>
</svg>
