<svg width="37" height="34" viewBox="0 0 37 34" fill="none" xmlns="http://www.w3.org/2000/svg">
<rect width="33.4113" height="33.4113" rx="5.56856" fill="#F5F7FA"/>
<g clip-path="url(#clip0_211_2541)">
<path d="M8.59168 9.63831C7.17815 9.63831 5.82253 10.1998 4.82302 11.1993L1.56103 14.4613C0.561519 15.4608 0 16.8165 0 18.23C0 21.1735 2.38619 23.5597 5.32971 23.5597C6.74324 23.5597 8.09886 22.9982 9.09837 21.9986L11.3547 19.7423C11.3547 19.7423 11.3547 19.7424 11.3547 19.7423L17.9289 13.1681C18.4063 12.6908 19.0537 12.4226 19.7288 12.4226C20.859 12.4226 21.8172 13.1592 22.1494 14.1786L24.2242 12.1038C23.2777 10.6213 21.6181 9.63831 19.7288 9.63831C18.3153 9.63831 16.9596 10.1998 15.9601 11.1993L7.12961 20.0299C6.65224 20.5072 6.00481 20.7754 5.32971 20.7754C3.9239 20.7754 2.78428 19.6358 2.78428 18.23C2.78428 17.5549 3.05245 16.9075 3.52981 16.4301L6.79178 13.1681C7.26915 12.6908 7.91658 12.4226 8.59168 12.4226C9.72196 12.4226 10.6801 13.1592 11.0123 14.1786L13.0872 12.1038C12.1407 10.6213 10.481 9.63831 8.59168 9.63831Z" fill="#394149"/>
<path d="M18.2668 20.0299C17.7894 20.5072 17.142 20.7754 16.4669 20.7754C15.3368 20.7754 14.3787 20.039 14.0464 19.0198L11.9716 21.0945C12.9182 22.5768 14.5777 23.5597 16.4669 23.5597C17.8804 23.5597 19.236 22.9982 20.2355 21.9986L29.0661 13.1681C29.5434 12.6908 30.1909 12.4226 30.866 12.4226C32.2718 12.4226 33.4114 13.5622 33.4114 14.968C33.4114 15.6431 33.1432 16.2905 32.6659 16.7679L29.4039 20.0299C28.9265 20.5072 28.2791 20.7754 27.604 20.7754C26.4738 20.7754 25.5156 20.0388 25.1834 19.0196L23.1086 21.0944C24.0552 22.5768 25.7148 23.5597 27.604 23.5597C29.0175 23.5597 30.3731 22.9982 31.3727 21.9986L34.6346 18.7367C35.6341 17.7372 36.1957 16.3815 36.1957 14.968C36.1957 12.0245 33.8095 9.63831 30.866 9.63831C29.4524 9.63831 28.0968 10.1998 27.0973 11.1993L18.2668 20.0299Z" fill="#394149"/>
</g>
<defs>
<clipPath id="clip0_211_2541">
<rect width="36.1956" height="13.9214" fill="white" transform="translate(0 9.63831)"/>
</clipPath>
</defs>
</svg>
