<svg width="34" height="34" viewBox="0 0 34 34" fill="none" xmlns="http://www.w3.org/2000/svg">
<g clip-path="url(#clip0_211_2056)">
<path d="M31.3207 9.33532C31.3207 9.35886 31.3207 9.38828 31.3146 9.40593C31.284 9.63542 31.284 9.8649 31.3023 10.1003C31.3146 10.1591 31.3269 10.218 31.3759 10.265C31.4556 10.3533 31.5782 10.3356 31.6273 10.2297C31.6518 10.1768 31.6518 10.1238 31.6395 10.0708C31.5782 9.84725 31.566 9.61188 31.5598 9.38239C31.5598 9.37063 31.5598 9.35297 31.5598 9.33532C31.6273 9.32944 31.6886 9.32355 31.7437 9.32355C31.7867 9.31767 31.8235 9.31178 31.8541 9.29413C31.9461 9.24706 31.9461 9.14703 31.848 9.09996C31.8112 9.0823 31.7622 9.07642 31.7193 9.07642C31.566 9.0823 31.4127 9.0823 31.2594 9.0823C31.2043 9.0823 31.1491 9.08819 31.0939 9.09407C31.0632 9.09996 31.0264 9.09996 31.002 9.11761C30.959 9.13526 30.9345 9.16468 30.9345 9.20587C30.9406 9.24706 30.959 9.2706 31.002 9.28825C31.0264 9.3059 31.0571 9.31178 31.0878 9.31178C31.1613 9.31767 31.2411 9.32944 31.3207 9.33532ZM33.0067 9.606C33.0067 9.61188 33.0128 9.61776 33.0128 9.61776C33.0374 9.77664 33.0619 9.92963 33.0803 10.0826C33.0864 10.1356 33.0925 10.1826 33.1293 10.2238C33.209 10.3239 33.3317 10.3121 33.3868 10.2062C33.4113 10.1532 33.4175 10.1003 33.4052 10.0414C33.3684 9.8649 33.35 9.68837 33.3132 9.51773C33.2887 9.41182 33.2581 9.31178 33.2274 9.21764C33.209 9.1588 33.1661 9.1176 33.0925 9.11172C33.019 9.09996 32.9638 9.13526 32.9331 9.18822C32.8963 9.23529 32.8657 9.28236 32.8412 9.33532C32.7983 9.42947 32.7615 9.52362 32.7124 9.61188C32.7063 9.63542 32.7002 9.65307 32.6879 9.67072C32.6818 9.65895 32.6757 9.65307 32.6757 9.65307C32.5959 9.50597 32.5224 9.35886 32.4427 9.21764C32.4304 9.20587 32.4243 9.1941 32.4181 9.18233C32.3814 9.12938 32.3385 9.09996 32.271 9.09996C32.2097 9.10584 32.1606 9.14114 32.13 9.1941C32.1177 9.21764 32.1177 9.23529 32.1116 9.25883C32.0871 9.44712 32.0564 9.63542 32.0319 9.82371C32.0196 9.92963 32.0135 10.0355 32.0135 10.1415C32.0074 10.165 32.0135 10.1944 32.0258 10.218C32.038 10.265 32.0748 10.2944 32.1238 10.3003C32.1852 10.3062 32.2281 10.2886 32.2465 10.2415C32.2649 10.2062 32.271 10.1768 32.2771 10.1473C32.3017 10.0414 32.32 9.9414 32.3385 9.84136C32.3507 9.78252 32.3568 9.73545 32.3752 9.67072C32.3875 9.69426 32.3997 9.71191 32.412 9.72956C32.4672 9.80018 32.5224 9.87079 32.5898 9.92963C32.6572 9.9767 32.7124 9.97082 32.7676 9.91786C32.7799 9.90609 32.786 9.90021 32.7983 9.88844C32.8534 9.80606 32.9209 9.72368 32.976 9.6413C32.9883 9.62953 32.9944 9.61776 33.0067 9.606Z" fill="#3A3B7B"/>
<path d="M18.8805 9.45099C18.8379 9.56281 18.8297 9.64338 18.8494 9.71034C18.8711 9.8014 18.9275 9.83121 19.0041 9.80805C19.7242 9.63714 21.3033 10.1223 21.8879 10.2575C22.0258 10.2858 22.1379 10.115 22.0439 9.96186C21.9065 9.81354 20.3282 9.17852 19.7259 9.1439C19.4899 9.1311 19.0678 9.073 18.8805 9.45099Z" fill="#3A3B7B"/>
<path d="M25.0518 7.39536C25.1285 7.43787 25.1714 7.47843 25.1926 7.52374C25.2241 7.58318 25.2075 7.6243 25.1545 7.64529C24.6785 7.86826 24.0451 8.8282 23.7894 9.15928C23.7274 9.23544 23.5845 9.19118 23.5629 9.06593C23.5673 8.92432 24.1288 7.88257 24.4422 7.59883C24.5653 7.48805 24.7688 7.27069 25.0518 7.39536Z" fill="#3A3B7B"/>
<path d="M21.261 6.92273C21.3532 6.85603 21.449 6.83266 21.498 6.876C22.2162 7.4655 22.597 8.39903 22.8328 9.25365C22.8417 9.27356 22.8423 9.30213 22.8352 9.33194C22.8322 9.35741 22.8128 9.38433 22.782 9.40515C22.7491 9.42814 22.7208 9.43514 22.7075 9.41533C22.3927 9.00442 20.5949 7.40564 21.261 6.92273Z" fill="#3A3B7B"/>
<path d="M6.05247 17.1431C6.2246 17.0201 6.41173 16.9177 6.60975 16.8382C6.81693 16.7814 7.03776 16.7908 7.23886 16.8651C7.43992 16.9395 7.61037 17.0746 7.72431 17.2501C7.82624 17.4252 7.86611 17.6273 7.83797 17.826C7.80984 18.0247 7.7152 18.2093 7.56826 18.3519C7.45436 18.4675 7.32505 18.5682 7.18376 18.6515C6.55404 19.0419 5.91871 19.411 5.28341 19.8014C5.15342 19.8991 5.01551 19.9868 4.87102 20.0635C4.65123 20.1687 4.40005 20.1969 4.16091 20.1432C3.92177 20.0895 3.70971 19.9572 3.5614 19.7693C3.45053 19.6363 3.35696 19.4908 3.28275 19.3361C2.68088 18.1219 2.05673 16.9131 1.47715 15.6776C1.20965 15.1427 0.992311 14.5276 0.780543 13.9339C0.688922 13.7614 0.671031 13.5614 0.730678 13.3764C0.790326 13.1915 0.922806 13.0361 1.09994 12.9434C1.27707 12.8508 1.48488 12.8281 1.67917 12.8802C1.87346 12.9323 2.03891 13.0552 2.14032 13.2225C2.45202 13.6201 2.72795 14.0424 2.9651 14.4848C3.56697 15.5546 4.14098 16.6243 4.72055 17.6619C4.7543 17.7193 4.79151 17.7746 4.83201 17.8277C5.26824 17.6517 5.67853 17.4215 6.05247 17.1431Z" fill="#3A3B7B"/>
<path d="M12.2754 16.7699C10.8989 18.3156 8.59177 17.9252 7.43262 15.9355C6.60783 14.5234 6.46294 12.1914 8.25742 10.7205C8.64061 10.4126 9.09881 10.2028 9.58931 10.1108C10.1907 10.028 10.804 10.1298 11.3414 10.4017C11.8789 10.6736 12.3131 11.1015 12.582 11.6244C13.5628 13.336 13.4234 15.5183 12.2754 16.7699ZM11.7181 13.1649C11.5719 12.7443 11.2785 12.3852 10.8878 12.1486C10.6667 11.9973 10.398 11.9238 10.127 11.9404C9.85598 11.9569 9.59922 12.0626 9.39984 12.2395C8.60294 12.9188 8.43572 14.5288 9.0153 15.4862C9.08918 15.6423 9.19766 15.7811 9.33324 15.8927C9.46882 16.0044 9.62819 16.0863 9.80018 16.1326C9.97217 16.179 10.1526 16.1887 10.329 16.1612C10.5053 16.1335 10.6732 16.0693 10.8209 15.9729C11.2529 15.6515 11.5698 15.2088 11.7276 14.7066C11.8855 14.2043 11.8763 13.6673 11.7015 13.1702L11.7181 13.1649Z" fill="#3A3B7B"/>
<path d="M17.8928 13.839C17.7519 13.8681 17.6063 13.8698 17.4647 13.8441C17.3231 13.8183 17.1882 13.7657 17.0681 13.6892C16.963 13.6315 16.8725 13.5522 16.8031 13.4569C16.7338 13.3616 16.6874 13.2528 16.6671 13.1382C16.6468 13.0236 16.6533 12.9062 16.686 12.7943C16.7187 12.6824 16.7769 12.5789 16.8563 12.4911C16.9946 12.3147 17.191 12.1885 17.4136 12.1328C17.9947 11.9709 18.5928 11.8722 19.1969 11.8386C19.3296 11.8238 19.4641 11.8345 19.5924 11.8703C19.7207 11.9061 19.8403 11.966 19.9441 12.0468C20.0479 12.1275 20.1339 12.2273 20.197 12.3403C20.2601 12.4534 20.299 12.5774 20.3115 12.7051C20.4856 13.3322 20.5047 13.9898 20.3672 14.6253C19.8656 16.6791 18.138 17.3852 16.1987 16.7273C15.6543 16.5514 15.177 16.2236 14.8278 15.7859C14.362 15.2588 14.0318 14.6341 13.8637 13.962C13.7275 13.3635 13.7424 12.7426 13.9072 12.1508C14.072 11.559 14.3819 11.0136 14.811 10.5602C15.2183 10.0674 15.7469 9.6796 16.3492 9.43166C16.7297 9.23033 17.1751 9.17308 17.5975 9.2712C17.6933 9.29665 17.7803 9.34625 17.8494 9.41484C17.9185 9.48343 17.9673 9.56852 17.9906 9.66129C18.0139 9.75405 18.0109 9.85112 17.982 9.94241C17.953 10.0337 17.8992 10.1159 17.826 10.1805C17.6868 10.3014 17.5356 10.4089 17.3746 10.5014C16.8791 10.8042 16.448 11.1944 16.1039 11.6514C15.8784 11.947 15.7231 12.2866 15.649 12.646C15.5748 13.0055 15.5837 13.3762 15.6749 13.732C15.8012 14.2172 16.0817 14.6527 16.4773 14.9782C17.7034 16.048 19.2972 15.0157 19.0186 13.5555C18.6118 13.6518 18.2551 13.7534 17.8928 13.839Z" fill="#3A3B7B"/>
<path d="M25.3829 16.8556C23.5717 17.9254 21.5098 16.8556 21.0583 14.6092C20.7295 13.0046 21.3537 10.7581 23.5383 9.90232C24.0031 9.72415 24.5072 9.6616 25.0039 9.72046C25.6007 9.82531 26.1482 10.1073 26.5691 10.5266C26.99 10.946 27.2632 11.4815 27.3501 12.0578C27.7179 13.9673 26.882 16.0052 25.3829 16.8556ZM26.0126 13.2559C26.0121 12.8116 25.8483 12.3817 25.5501 12.0418C25.3907 11.8316 25.1602 11.681 24.898 11.6156C24.6358 11.5503 24.3581 11.5742 24.1123 11.6834C23.1314 12.0899 22.4404 13.5662 22.6912 14.652C22.7104 14.8224 22.768 14.9867 22.8602 15.1335C22.9524 15.2802 23.077 15.4059 23.2251 15.5017C23.3731 15.5974 23.5412 15.661 23.7176 15.6879C23.8939 15.7148 24.0743 15.7045 24.246 15.6575C24.7645 15.4837 25.2134 15.1588 25.53 14.7283C25.8468 14.2977 26.0155 13.783 26.0126 13.2559Z" fill="#3A3B7B"/>
<path d="M29.1817 17.305C29.1543 17.5008 29.0471 17.6781 28.8835 17.798C28.72 17.9178 28.5135 17.9704 28.3095 17.9442C28.1056 17.9179 27.9208 17.815 27.7959 17.658C27.671 17.501 27.6162 17.3029 27.6436 17.1071C27.6709 16.9113 27.7782 16.734 27.9417 16.6141C28.1053 16.4943 28.3118 16.4417 28.5157 16.4679C28.7197 16.4942 28.9044 16.5971 29.0293 16.7541C29.1542 16.9111 29.209 17.1093 29.1817 17.305ZM28.6968 10.0896C28.8028 9.93423 28.9583 9.81592 29.1401 9.7523C29.3219 9.68868 29.5202 9.68317 29.7055 9.73658C29.8939 9.78182 30.0603 9.88781 30.177 10.0368C30.2937 10.1858 30.3535 10.3687 30.3464 10.5549C30.3218 10.8537 30.2753 11.1504 30.2071 11.4428C30.0232 12.4323 29.8448 13.4218 29.6498 14.4007C29.5606 14.7911 29.4436 15.1655 29.3154 15.5613C29.2708 15.685 29.1963 15.7968 29.0981 15.8876C29.037 15.9559 28.959 16.0082 28.8712 16.0398C28.7835 16.0715 28.6888 16.0813 28.5961 16.0685C28.5033 16.0557 28.4153 16.0207 28.3404 15.9666C28.2655 15.9125 28.206 15.8412 28.1674 15.7592C28.1012 15.6121 28.0652 15.4541 28.0615 15.2939C28.0615 14.6306 28.0615 13.9621 28.1061 13.2935C28.1819 12.3393 28.3309 11.3918 28.5519 10.4587C28.578 10.3336 28.627 10.2141 28.6968 10.1056V10.0896Z" fill="#3A3B7B"/>
<path fill-rule="evenodd" clip-rule="evenodd" d="M3.69796 21.603C3.63216 21.7439 3.61411 21.9011 3.64627 22.0524C3.66766 22.2518 3.71464 22.4479 3.78615 22.6362C3.87542 22.8669 3.97532 23.095 4.0985 23.3762C4.12682 23.4408 4.15643 23.5084 4.1874 23.5794C4.35351 23.9603 4.56194 24.4471 4.83995 25.1515C4.91864 25.3516 4.98851 25.5534 5.05888 25.7565C5.0873 25.8386 5.11583 25.921 5.14503 26.0035C5.2497 26.2969 5.4298 26.5605 5.66853 26.7695C5.7699 26.8843 5.90436 26.968 6.05513 27.0098C6.20885 27.0525 6.37233 27.0498 6.52441 27.0021C6.67649 26.9543 6.81006 26.8638 6.90779 26.7421C7.00359 26.6229 7.06057 26.4792 7.07164 26.3291C7.1338 26.0367 7.11258 25.7335 7.01014 25.4516C6.84754 24.9835 6.66233 24.5147 6.44874 24.0562L6.44776 24.0542C6.0964 23.3368 5.73924 22.6245 5.36519 21.9118L5.36239 21.9068C5.25288 21.7211 5.11058 21.5552 4.94186 21.4163C4.83233 21.2924 4.68125 21.2088 4.5144 21.18C4.34399 21.1506 4.16825 21.1802 4.01853 21.2637C3.8769 21.3413 3.76463 21.4601 3.69796 21.603Z" fill="#3A3B7B"/>
<path fill-rule="evenodd" clip-rule="evenodd" d="M9.06451 19.8365C8.51358 19.6996 7.93821 19.6796 7.3785 19.7781C6.94498 19.819 6.5186 19.915 6.22253 20.1051C6.07195 20.2019 5.9502 20.3261 5.88248 20.484C5.81438 20.6428 5.80569 20.8244 5.86149 21.0267C5.96338 21.3973 6.09569 21.7576 6.22753 22.1168L6.24889 22.175L6.2494 22.1762C6.64638 23.2197 7.04714 24.2596 7.45155 25.2959C7.49871 25.4592 7.5654 25.6168 7.65027 25.7654L7.65186 25.7681C7.76398 25.9527 7.90779 26.1178 8.07721 26.2565C8.16194 26.3328 8.26672 26.3855 8.38034 26.4091C8.49507 26.4329 8.61439 26.426 8.72529 26.3891C8.83625 26.3523 8.93449 26.2869 9.00936 26.2001C9.08301 26.1147 9.13124 26.0119 9.14896 25.9024C9.22205 25.605 9.19864 25.2933 9.0818 25.009C9.04534 24.9134 9.01674 24.8156 8.9866 24.7127C8.97655 24.6784 8.96636 24.6435 8.95561 24.6079C9.88131 24.2606 10.8663 23.7936 11.2126 22.7073C11.3483 22.3319 11.3596 21.9253 11.245 21.5435C11.1303 21.1612 10.895 20.8223 10.5715 20.5736C10.1312 20.2254 9.61683 19.9738 9.06451 19.8365ZM7.5374 21.169C7.55563 21.164 7.574 21.1593 7.59241 21.1549C8.19507 21.064 8.81166 21.1852 9.32866 21.496C9.5565 21.6481 9.64983 21.8171 9.66586 21.9797C9.6824 22.1471 9.61898 22.3285 9.49158 22.5028C9.25084 22.8322 8.81152 23.0959 8.41469 23.145C8.12539 22.5056 7.83161 21.8403 7.5374 21.169Z" fill="#3A3B7B"/>
<path d="M12.7374 18.6661C13.3935 18.3753 14.2062 18.3251 14.8422 18.5296C15.0023 18.5743 15.1413 18.6712 15.2353 18.8035C15.3286 18.9351 15.3717 19.0936 15.3573 19.252C15.3564 19.3549 15.3301 19.4561 15.2806 19.5474C15.2302 19.6403 15.1573 19.7203 15.0679 19.7804C14.9785 19.8406 14.8754 19.8793 14.7672 19.8931C14.659 19.9069 14.5489 19.8956 14.4462 19.8599L14.4384 19.8572L14.4311 19.8535C14.3785 19.8271 14.3227 19.8072 14.265 19.7943L14.2614 19.7935C13.814 19.6795 13.392 19.8684 13.2379 20.1006C13.1644 20.2113 13.1553 20.3231 13.2165 20.4247C13.2821 20.5336 13.4429 20.6558 13.7683 20.7429C13.8578 20.7664 13.9495 20.7892 14.0426 20.8123C14.2999 20.8763 14.5673 20.9427 14.8259 21.0348L14.8269 21.0351C16.0199 21.4708 16.4641 22.3731 16.3121 23.2217C16.1616 24.0609 15.4314 24.8247 14.3332 25.0049C13.9336 25.0899 13.5177 25.0733 13.1268 24.9568C12.7349 24.84 12.3816 24.6268 12.1021 24.3383L12.0948 24.3308C12.0065 24.2221 11.9472 24.0944 11.9209 23.959C11.8967 23.8367 11.9094 23.7103 11.9576 23.5948C12.0054 23.4799 12.0864 23.3805 12.1908 23.308C12.3012 23.2259 12.4342 23.1767 12.5734 23.1664C12.7122 23.1561 12.851 23.1851 12.9729 23.2496C13.0946 23.306 13.2077 23.378 13.3094 23.4636L13.3113 23.4652C13.491 23.6229 13.7085 23.6641 13.917 23.626C14.1286 23.5873 14.3275 23.4672 14.4555 23.3078C14.5826 23.1494 14.6337 22.9612 14.5731 22.7785C14.5122 22.5945 14.3289 22.3883 13.9263 22.2159C13.821 22.173 13.7119 22.1384 13.5984 22.1048C13.5678 22.0957 13.5366 22.0867 13.5051 22.0775C13.4212 22.053 13.3348 22.0278 13.2501 22.0001C13.1918 21.981 13.134 21.9629 13.0767 21.945C12.92 21.896 12.7674 21.8483 12.6204 21.7843C12.3006 21.6798 12.0243 21.4791 11.8326 21.212C11.6402 20.9438 11.5433 20.6231 11.5565 20.2977C11.5575 19.5048 12.0779 18.9586 12.7374 18.6661Z" fill="#3A3B7B"/>
<path d="M21.0552 18.5816C20.928 18.522 20.7873 18.4937 20.6459 18.4992C20.5044 18.5048 20.3666 18.5441 20.245 18.6136C20.124 18.6826 20.0228 18.7792 19.9503 18.8949C19.8838 18.9923 19.8377 19.1012 19.8148 19.2155C19.7918 19.3298 19.7924 19.4473 19.8164 19.5613C19.8401 19.7078 19.8663 19.8503 19.8923 19.9908C19.9352 20.2234 19.977 20.4507 20.0046 20.6825L20.0056 20.6883C20.0684 21.0518 20.1012 21.4194 20.1042 21.7878L20.1045 21.7931C20.1259 22.1909 19.9847 22.581 19.711 22.8806L19.7067 22.8859C19.6177 22.9954 19.4986 23.079 19.3629 23.1273C19.2271 23.1756 19.0801 23.1867 18.9382 23.1594C18.7962 23.132 18.665 23.0674 18.5592 22.9725C18.4534 22.8777 18.3771 22.7561 18.339 22.6221C18.2577 22.3397 18.2106 22.0491 18.1987 21.7563L18.3376 19.6339C18.3396 19.6062 18.342 19.5777 18.3443 19.549C18.3496 19.4846 18.355 19.4189 18.3573 19.3577C18.3606 19.2676 18.3578 19.1749 18.3359 19.0872C18.3135 18.9975 18.2709 18.9123 18.1954 18.8396C18.1206 18.7677 18.0197 18.7147 17.8926 18.6786C17.6629 18.6148 17.4687 18.6168 17.3068 18.6827C17.1449 18.7487 17.034 18.8711 16.9554 19.0124C16.8775 19.1526 16.8275 19.3186 16.7896 19.4849C16.7615 19.6083 16.739 19.7378 16.7175 19.861C16.7101 19.9035 16.7028 19.9452 16.6955 19.9857L16.6953 19.9869C16.5805 20.663 16.5464 21.3494 16.5935 22.0329C16.6023 22.4022 16.6825 22.7668 16.8302 23.108C16.9968 23.5482 17.2986 23.9297 17.6957 24.202C18.0936 24.4748 18.5685 24.6251 19.0575 24.6331C19.5464 24.641 20.0264 24.5062 20.4337 24.2465C20.8404 23.9871 21.1556 23.6154 21.3376 23.1805C21.5922 22.6266 21.7117 22.0241 21.687 21.4191C21.6721 20.9774 21.647 20.5323 21.6221 20.0894C21.6099 19.8722 21.5977 19.6554 21.5867 19.44C21.5812 19.2239 21.507 19.0147 21.374 18.8403C21.2917 18.7301 21.1822 18.6412 21.0552 18.5816Z" fill="#3A3B7B"/>
<path d="M25.5578 21.9096C25.5449 21.9253 25.5313 21.9416 25.5171 21.9585C25.4136 21.3856 25.3177 20.8129 25.2217 20.2393C25.1873 20.0335 25.1526 19.8268 25.1178 19.6207L25.1139 19.5977L25.1012 19.5779C25.0772 19.5405 25.0748 19.5038 25.0748 19.4256V19.4166L25.0734 19.4077C25.0474 19.2462 24.9713 19.096 24.8551 18.9766C24.7392 18.8575 24.5886 18.7747 24.423 18.7387C24.2577 18.6996 24.084 18.7082 23.9237 18.7635C23.7639 18.8187 23.6246 18.9179 23.5232 19.0487C23.4389 19.149 23.3697 19.2603 23.318 19.3792C23.2004 19.6354 23.0818 19.8922 22.9629 20.1497L22.9609 20.1542C22.6641 20.7971 22.3652 21.4442 22.0751 22.0965L22.0742 22.0986C21.8961 22.5216 21.7491 22.9672 21.6026 23.4115C21.5733 23.5002 21.544 23.5888 21.5145 23.6772C21.4616 23.8174 21.4385 23.9663 21.4465 24.1152C21.4368 24.2485 21.4701 24.3814 21.5417 24.4961C21.6148 24.6131 21.7243 24.7051 21.8548 24.7593C21.993 24.8175 22.1476 24.8298 22.294 24.7944C22.4401 24.759 22.5698 24.6781 22.6628 24.5643C22.7815 24.4242 22.8836 24.2713 22.9669 24.1093C23.2127 23.6268 23.4476 23.1384 23.6814 22.6521C23.7719 22.464 23.8598 22.2955 23.9598 22.1121C23.9667 22.1347 23.9737 22.1568 23.981 22.1789C24.0858 22.6218 24.2627 23.0461 24.5052 23.4361C24.5511 23.5188 24.6151 23.591 24.6926 23.6478C24.7712 23.7054 24.8618 23.7457 24.9582 23.7662C25.0546 23.7867 25.1545 23.7868 25.251 23.7665C25.3473 23.7462 25.4382 23.7058 25.5168 23.6486L25.6723 23.5368L26.8791 22.5612L26.8078 22.9977C26.7098 23.5977 26.6126 24.1928 26.5093 24.7879C26.4417 25.0517 26.4418 25.3273 26.5096 25.591C26.539 25.7394 26.6137 25.876 26.7244 25.9834C26.836 26.0918 26.9789 26.1653 27.1347 26.1947C27.2904 26.224 27.4517 26.2078 27.5977 26.148C27.7415 26.0891 27.8639 25.9907 27.9494 25.8652C28.1484 25.6283 28.2723 25.3414 28.3063 25.0387C28.3575 24.6113 28.4154 24.1781 28.4733 23.745C28.54 23.2458 28.6067 22.7468 28.663 22.2573L28.6632 22.2558C28.7174 21.72 28.7436 21.182 28.7418 20.6437C28.7536 20.4736 28.7095 20.3041 28.6155 20.1593C28.5211 20.0139 28.3814 19.9009 28.2162 19.8363C28.0444 19.7613 27.8521 19.7413 27.6675 19.7792C27.4842 19.8168 27.3182 19.9096 27.1937 20.0439C26.9711 20.2415 26.7623 20.453 26.5686 20.6769L26.5673 20.6784C26.3558 20.9313 26.1458 21.1892 25.9371 21.4454C25.8102 21.6012 25.6837 21.7566 25.5578 21.9096Z" fill="#3A3B7B"/>
</g>
<defs>
<clipPath id="clip0_211_2056">
<rect width="32.7153" height="20.186" fill="white" transform="translate(0.696075 6.854)"/>
</clipPath>
</defs>
</svg>
